<svg id="visual" viewBox="0 0 900 600" width="900" height="600" xmlns="http://www.w3.org/2000/svg" xmlns:xlink="http://www.w3.org/1999/xlink" version="1.1"><rect x="0" y="0" width="900" height="600" fill="#3F5666"></rect><defs><linearGradient id="grad1_0" x1="33.3%" y1="0%" x2="100%" y2="100%"><stop offset="20%" stop-color="#8eab9b" stop-opacity="1"></stop><stop offset="80%" stop-color="#8eab9b" stop-opacity="1"></stop></linearGradient></defs><defs><linearGradient id="grad1_1" x1="33.3%" y1="0%" x2="100%" y2="100%"><stop offset="20%" stop-color="#8eab9b" stop-opacity="1"></stop><stop offset="80%" stop-color="#3f5666" stop-opacity="1"></stop></linearGradient></defs><defs><linearGradient id="grad2_0" x1="0%" y1="0%" x2="66.7%" y2="100%"><stop offset="20%" stop-color="#8eab9b" stop-opacity="1"></stop><stop offset="80%" stop-color="#8eab9b" stop-opacity="1"></stop></linearGradient></defs><defs><linearGradient id="grad2_1" x1="0%" y1="0%" x2="66.7%" y2="100%"><stop offset="20%" stop-color="#3f5666" stop-opacity="1"></stop><stop offset="80%" stop-color="#8eab9b" stop-opacity="1"></stop></linearGradient></defs><g transform="translate(900, 0)"><path d="M0 324.5C-41.1 311.1 -82.2 297.7 -114.8 277.2C-147.4 256.7 -171.6 229.1 -204.4 204.4C-237.1 179.6 -278.4 157.8 -299.8 124.2C-321.2 90.6 -322.9 45.3 -324.5 0L0 0Z" fill="#5c8184"></path><path d="M0 162.2C-20.5 155.5 -41.1 148.8 -57.4 138.6C-73.7 128.3 -85.8 114.5 -102.2 102.2C-118.5 89.8 -139.2 78.9 -149.9 62.1C-160.6 45.3 -161.4 22.6 -162.2 0L0 0Z" fill="#8eab9b"></path></g><g transform="translate(0, 600)"><path d="M0 -324.5C41.8 -316.5 83.7 -308.5 120.9 -291.9C158.2 -275.4 190.8 -250.5 222 -222C253.2 -193.6 283 -161.8 299.8 -124.2C316.6 -86.6 320.6 -43.3 324.5 0L0 0Z" fill="#5c8184"></path><path d="M0 -162.2C20.9 -158.2 41.8 -154.2 60.5 -146C79.1 -137.7 95.4 -125.2 111 -111C126.6 -96.8 141.5 -80.9 149.9 -62.1C158.3 -43.3 160.3 -21.7 162.2 0L0 0Z" fill="#8eab9b"></path></g></svg>