<svg id="visual" viewBox="0 0 900 600" width="900" height="600" xmlns="http://www.w3.org/2000/svg" xmlns:xlink="http://www.w3.org/1999/xlink" version="1.1"><rect x="0" y="0" width="900" height="600" fill="#33573c"></rect><defs><linearGradient id="grad1_0" x1="33.3%" y1="0%" x2="100%" y2="100%"><stop offset="20%" stop-color="#fbae3c" stop-opacity="1"></stop><stop offset="80%" stop-color="#fbae3c" stop-opacity="1"></stop></linearGradient></defs><defs><linearGradient id="grad1_1" x1="33.3%" y1="0%" x2="100%" y2="100%"><stop offset="20%" stop-color="#fbae3c" stop-opacity="1"></stop><stop offset="80%" stop-color="#c4a332" stop-opacity="1"></stop></linearGradient></defs><defs><linearGradient id="grad1_2" x1="33.3%" y1="0%" x2="100%" y2="100%"><stop offset="20%" stop-color="#949434" stop-opacity="1"></stop><stop offset="80%" stop-color="#c4a332" stop-opacity="1"></stop></linearGradient></defs><defs><linearGradient id="grad1_3" x1="33.3%" y1="0%" x2="100%" y2="100%"><stop offset="20%" stop-color="#949434" stop-opacity="1"></stop><stop offset="80%" stop-color="#6b8139" stop-opacity="1"></stop></linearGradient></defs><defs><linearGradient id="grad1_4" x1="33.3%" y1="0%" x2="100%" y2="100%"><stop offset="20%" stop-color="#4a6d3d" stop-opacity="1"></stop><stop offset="80%" stop-color="#6b8139" stop-opacity="1"></stop></linearGradient></defs><defs><linearGradient id="grad1_5" x1="33.3%" y1="0%" x2="100%" y2="100%"><stop offset="20%" stop-color="#4a6d3d" stop-opacity="1"></stop><stop offset="80%" stop-color="#33573c" stop-opacity="1"></stop></linearGradient></defs><defs><linearGradient id="grad2_0" x1="0%" y1="0%" x2="66.7%" y2="100%"><stop offset="20%" stop-color="#fbae3c" stop-opacity="1"></stop><stop offset="80%" stop-color="#fbae3c" stop-opacity="1"></stop></linearGradient></defs><defs><linearGradient id="grad2_1" x1="0%" y1="0%" x2="66.7%" y2="100%"><stop offset="20%" stop-color="#c4a332" stop-opacity="1"></stop><stop offset="80%" stop-color="#fbae3c" stop-opacity="1"></stop></linearGradient></defs><defs><linearGradient id="grad2_2" x1="0%" y1="0%" x2="66.7%" y2="100%"><stop offset="20%" stop-color="#c4a332" stop-opacity="1"></stop><stop offset="80%" stop-color="#949434" stop-opacity="1"></stop></linearGradient></defs><defs><linearGradient id="grad2_3" x1="0%" y1="0%" x2="66.7%" y2="100%"><stop offset="20%" stop-color="#6b8139" stop-opacity="1"></stop><stop offset="80%" stop-color="#949434" stop-opacity="1"></stop></linearGradient></defs><defs><linearGradient id="grad2_4" x1="0%" y1="0%" x2="66.7%" y2="100%"><stop offset="20%" stop-color="#6b8139" stop-opacity="1"></stop><stop offset="80%" stop-color="#4a6d3d" stop-opacity="1"></stop></linearGradient></defs><defs><linearGradient id="grad2_5" x1="0%" y1="0%" x2="66.7%" y2="100%"><stop offset="20%" stop-color="#33573c" stop-opacity="1"></stop><stop offset="80%" stop-color="#4a6d3d" stop-opacity="1"></stop></linearGradient></defs><g transform="translate(900, 0)"><path d="M0 378.6C-50 372.3 -100.1 366 -143.5 346.5C-186.9 326.9 -223.7 294.1 -259.5 259.5C-295.3 224.9 -330.1 188.4 -349.8 144.9C-369.4 101.3 -374 50.7 -378.6 0L0 0Z" fill="#3d623d"></path><path d="M0 315.5C-41.7 310.2 -83.4 305 -119.6 288.7C-155.8 272.4 -186.4 245.1 -216.3 216.3C-246.1 187.4 -275.1 157 -291.5 120.7C-307.9 84.4 -311.7 42.2 -315.5 0L0 0Z" fill="#59773b"></path><path d="M0 252.4C-33.4 248.2 -66.7 244 -95.7 231C-124.6 217.9 -149.1 196.1 -173 173C-196.9 149.9 -220.1 125.6 -233.2 96.6C-246.3 67.5 -249.3 33.8 -252.4 0L0 0Z" fill="#7e8b36"></path><path d="M0 189.3C-25 186.1 -50 183 -71.8 173.2C-93.5 163.5 -111.9 147.1 -129.8 129.8C-147.6 112.4 -165 94.2 -174.9 72.4C-184.7 50.7 -187 25.3 -189.3 0L0 0Z" fill="#ab9c32"></path><path d="M0 126.2C-16.7 124.1 -33.4 122 -47.8 115.5C-62.3 109 -74.6 98 -86.5 86.5C-98.4 75 -110 62.8 -116.6 48.3C-123.1 33.8 -124.7 16.9 -126.2 0L0 0Z" fill="#dfa935"></path><path d="M0 63.1C-8.3 62 -16.7 61 -23.9 57.7C-31.2 54.5 -37.3 49 -43.3 43.3C-49.2 37.5 -55 31.4 -58.3 24.1C-61.6 16.9 -62.3 8.4 -63.1 0L0 0Z" fill="#fbae3c"></path></g><g transform="translate(0, 600)"><path d="M0 -378.6C45.8 -365.7 91.6 -352.9 139.7 -337.2C187.8 -321.5 238.2 -303 267.7 -267.7C297.2 -232.4 305.6 -180.2 320.6 -132.8C335.6 -85.4 357.1 -42.7 378.6 0L0 0Z" fill="#3d623d"></path><path d="M0 -315.5C38.2 -304.8 76.3 -294.1 116.4 -281C156.5 -267.9 198.5 -252.5 223.1 -223.1C247.6 -193.6 254.7 -150.2 267.2 -110.7C279.6 -71.1 297.6 -35.6 315.5 0L0 0Z" fill="#59773b"></path><path d="M0 -252.4C30.5 -243.8 61 -235.3 93.1 -224.8C125.2 -214.4 158.8 -202 178.5 -178.5C198.1 -154.9 203.7 -120.1 213.7 -88.5C223.7 -56.9 238.1 -28.5 252.4 0L0 0Z" fill="#7e8b36"></path><path d="M0 -189.3C22.9 -182.9 45.8 -176.4 69.8 -168.6C93.9 -160.8 119.1 -151.5 133.8 -133.8C148.6 -116.2 152.8 -90.1 160.3 -66.4C167.8 -42.7 178.5 -21.3 189.3 0L0 0Z" fill="#ab9c32"></path><path d="M0 -126.2C15.3 -121.9 30.5 -117.6 46.6 -112.4C62.6 -107.2 79.4 -101 89.2 -89.2C99.1 -77.5 101.9 -60.1 106.9 -44.3C111.9 -28.5 119 -14.2 126.2 0L0 0Z" fill="#dfa935"></path><path d="M0 -63.1C7.6 -61 15.3 -58.8 23.3 -56.2C31.3 -53.6 39.7 -50.5 44.6 -44.6C49.5 -38.7 50.9 -30 53.4 -22.1C55.9 -14.2 59.5 -7.1 63.1 0L0 0Z" fill="#fbae3c"></path></g></svg>